<?xml version="1.0" encoding="UTF-8"?>
<svg width="128" height="128" viewBox="0 0 128 128" xmlns="http://www.w3.org/2000/svg">
  <defs>
    <linearGradient id="grad1" x1="0%" y1="0%" x2="100%" y2="100%">
      <stop offset="0%" style="stop-color:#2563EB;stop-opacity:1" />
      <stop offset="100%" style="stop-color:#3B82F6;stop-opacity:1" />
    </linearGradient>
  </defs>
  
  <!-- Background Circle -->
  <circle cx="64" cy="64" r="60" fill="url(#grad1)" />
  
  <!-- Web Page Icon -->
  <rect x="32" y="32" width="64" height="48" rx="4" ry="4" fill="white" />
  
  <!-- Browser Bar -->
  <rect x="32" y="32" width="64" height="8" rx="4" ry="4" fill="#E5E7EB" />
  
  <!-- Browser Dots -->
  <circle cx="38" cy="36" r="2" fill="#EF4444" />
  <circle cx="46" cy="36" r="2" fill="#F59E0B" />
  <circle cx="54" cy="36" r="2" fill="#10B981" />
  
  <!-- Page Content Lines -->
  <rect x="38" y="46" width="52" height="3" rx="1.5" ry="1.5" fill="#E5E7EB" />
  <rect x="38" y="54" width="40" height="3" rx="1.5" ry="1.5" fill="#E5E7EB" />
  <rect x="38" y="62" width="48" height="3" rx="1.5" ry="1.5" fill="#E5E7EB" />
  <rect x="38" y="70" width="36" height="3" rx="1.5" ry="1.5" fill="#E5E7EB" />
  
  <!-- Chat Bubble -->
  <path d="M88,64 L88,88 C88,92.4183 84.4183,96 80,96 L64,96 L48,96 C43.5817,96 40,92.4183 40,88 L40,80" fill="none" stroke="white" stroke-width="6" stroke-linecap="round" />
  
  <!-- AI Response Dots -->
  <circle cx="56" cy="88" r="3" fill="white" />
  <circle cx="64" cy="88" r="3" fill="white" />
  <circle cx="72" cy="88" r="3" fill="white" />
</svg>
